<svg width="119" height="23" viewBox="0 0 119 23" fill="none" xmlns="http://www.w3.org/2000/svg">
<path d="M-2.21133e-05 17.4545V-1.71661e-05H4.21873V14.0284H11.4801V17.4545H-2.21133e-05ZM19.7748 17.7017C18.3998 17.7017 17.218 17.4204 16.2294 16.8579C15.2464 16.2898 14.4879 15.5 13.9538 14.4886C13.4254 13.4716 13.1612 12.2926 13.1612 10.9517C13.1612 9.6051 13.4254 8.42612 13.9538 7.41476C14.4879 6.39771 15.2464 5.60794 16.2294 5.04544C17.218 4.47726 18.3998 4.19317 19.7748 4.19317C21.1498 4.19317 22.3288 4.47726 23.3118 5.04544C24.3004 5.60794 25.0589 6.39771 25.5873 7.41476C26.1214 8.42612 26.3885 9.6051 26.3885 10.9517C26.3885 12.2926 26.1214 13.4716 25.5873 14.4886C25.0589 15.5 24.3004 16.2898 23.3118 16.8579C22.3288 17.4204 21.1498 17.7017 19.7748 17.7017ZM19.8004 14.5568C20.3004 14.5568 20.7237 14.4034 21.0703 14.0966C21.4169 13.7898 21.6811 13.3636 21.8629 12.8182C22.0504 12.2727 22.1442 11.642 22.1442 10.9261C22.1442 10.1988 22.0504 9.56248 21.8629 9.01703C21.6811 8.47157 21.4169 8.04544 21.0703 7.73862C20.7237 7.4318 20.3004 7.27839 19.8004 7.27839C19.2834 7.27839 18.8459 7.4318 18.4879 7.73862C18.1356 8.04544 17.8657 8.47157 17.6782 9.01703C17.4964 9.56248 17.4055 10.1988 17.4055 10.9261C17.4055 11.642 17.4964 12.2727 17.6782 12.8182C17.8657 13.3636 18.1356 13.7898 18.4879 14.0966C18.8459 14.4034 19.2834 14.5568 19.8004 14.5568ZM34.6257 22.6363C33.3814 22.6363 32.316 22.4631 31.4297 22.1165C30.5433 21.7699 29.8473 21.2954 29.3416 20.6932C28.8359 20.0909 28.5319 19.4091 28.4297 18.6477L32.3757 18.4261C32.4496 18.6932 32.5859 18.9261 32.7848 19.125C32.9893 19.3238 33.2535 19.4773 33.5774 19.5852C33.9069 19.6932 34.2933 19.7471 34.7365 19.7471C35.4353 19.7471 36.0121 19.5767 36.4666 19.2358C36.9268 18.9006 37.1569 18.3125 37.1569 17.4716V15.1704H37.0121C36.8473 15.5738 36.5973 15.9346 36.2621 16.2528C35.9268 16.571 35.5092 16.821 35.0092 17.0028C34.5149 17.1846 33.9467 17.2756 33.3047 17.2756C32.3501 17.2756 31.4751 17.054 30.6797 16.6108C29.8899 16.1619 29.2564 15.4687 28.7791 14.5312C28.3075 13.5881 28.0717 12.375 28.0717 10.892C28.0717 9.36362 28.316 8.1051 28.8047 7.11646C29.2933 6.12214 29.9325 5.38635 30.7223 4.90907C31.5177 4.4318 32.3728 4.19317 33.2876 4.19317C33.9751 4.19317 34.5632 4.31248 35.0518 4.55112C35.5461 4.78407 35.9524 5.08521 36.2706 5.45453C36.5888 5.82385 36.8302 6.20737 36.995 6.6051H37.1143V4.36362H41.2649V17.5057C41.2649 18.6136 40.9865 19.5483 40.4297 20.3096C39.8728 21.071 39.0944 21.6477 38.0944 22.0398C37.0944 22.4375 35.9382 22.6363 34.6257 22.6363ZM34.7535 14.2415C35.2592 14.2415 35.691 14.1079 36.049 13.8409C36.4069 13.5738 36.6825 13.1903 36.8757 12.6903C37.0689 12.1903 37.1655 11.5909 37.1655 10.892C37.1655 10.1818 37.0689 9.57101 36.8757 9.05964C36.6882 8.5426 36.4126 8.14487 36.049 7.86646C35.691 7.58805 35.2592 7.44885 34.7535 7.44885C34.2365 7.44885 33.799 7.59089 33.441 7.87498C33.0831 8.15907 32.8103 8.55964 32.6228 9.07669C32.441 9.58805 32.3501 10.1932 32.3501 10.892C32.3501 11.5909 32.4439 12.1903 32.6314 12.6903C32.8189 13.1903 33.0888 13.5738 33.441 13.8409C33.799 14.1079 34.2365 14.2415 34.7535 14.2415ZM50.0326 17.7017C48.6576 17.7017 47.4758 17.4204 46.4872 16.8579C45.5042 16.2898 44.7457 15.5 44.2116 14.4886C43.6832 13.4716 43.419 12.2926 43.419 10.9517C43.419 9.6051 43.6832 8.42612 44.2116 7.41476C44.7457 6.39771 45.5042 5.60794 46.4872 5.04544C47.4758 4.47726 48.6576 4.19317 50.0326 4.19317C51.4076 4.19317 52.5866 4.47726 53.5696 5.04544C54.5582 5.60794 55.3167 6.39771 55.8451 7.41476C56.3792 8.42612 56.6463 9.6051 56.6463 10.9517C56.6463 12.2926 56.3792 13.4716 55.8451 14.4886C55.3167 15.5 54.5582 16.2898 53.5696 16.8579C52.5866 17.4204 51.4076 17.7017 50.0326 17.7017ZM50.0582 14.5568C50.5582 14.5568 50.9815 14.4034 51.3281 14.0966C51.6747 13.7898 51.9389 13.3636 52.1207 12.8182C52.3082 12.2727 52.402 11.642 52.402 10.9261C52.402 10.1988 52.3082 9.56248 52.1207 9.01703C51.9389 8.47157 51.6747 8.04544 51.3281 7.73862C50.9815 7.4318 50.5582 7.27839 50.0582 7.27839C49.5412 7.27839 49.1037 7.4318 48.7457 7.73862C48.3934 8.04544 48.1236 8.47157 47.9361 9.01703C47.7542 9.56248 47.6633 10.1988 47.6633 10.9261C47.6633 11.642 47.7542 12.2727 47.9361 12.8182C48.1236 13.3636 48.3934 13.7898 48.7457 14.0966C49.1037 14.4034 49.5412 14.5568 50.0582 14.5568Z" fill="#F6AF03"/>
<path d="M63.9375 17.4545V-1.71661e-05H68.1562V7.00566H75.0341V-1.71661e-05H79.2443V17.4545H75.0341V10.4403H68.1562V17.4545H63.9375ZM88.0099 17.7017C86.6406 17.7017 85.4588 17.4318 84.4645 16.892C83.4758 16.3466 82.7145 15.571 82.1804 14.5653C81.652 13.554 81.3878 12.3523 81.3878 10.9602C81.3878 9.60794 81.6548 8.42612 82.1889 7.41476C82.723 6.39771 83.4758 5.60794 84.4474 5.04544C85.419 4.47726 86.5639 4.19317 87.8821 4.19317C88.8139 4.19317 89.6662 4.33805 90.4389 4.62782C91.2116 4.9176 91.8792 5.34657 92.4417 5.91476C93.0042 6.48294 93.4417 7.18464 93.7542 8.01987C94.0667 8.84941 94.223 9.80112 94.223 10.875V11.9148H82.8451V9.4943H90.3451C90.3395 9.05112 90.2344 8.65623 90.0298 8.30964C89.8253 7.96305 89.544 7.69316 89.1861 7.49998C88.8338 7.30112 88.4275 7.20169 87.9673 7.20169C87.5014 7.20169 87.0838 7.3068 86.7145 7.51703C86.3451 7.72157 86.0525 8.00282 85.8366 8.36078C85.6207 8.71305 85.5071 9.11362 85.4957 9.56248V12.0256C85.4957 12.5596 85.6008 13.0284 85.8111 13.4318C86.0213 13.8295 86.3196 14.1392 86.7059 14.3608C87.0923 14.5824 87.5525 14.6932 88.0866 14.6932C88.4559 14.6932 88.7912 14.642 89.0923 14.5398C89.3934 14.4375 89.652 14.2869 89.8679 14.0881C90.0838 13.8892 90.2457 13.6449 90.3537 13.3551L94.1804 13.4659C94.0213 14.3238 93.6719 15.071 93.1321 15.7074C92.598 16.3381 91.8963 16.8295 91.027 17.1818C90.1576 17.5284 89.152 17.7017 88.0099 17.7017ZM96.3515 17.4545V4.36362H100.4V6.74998H100.536C100.775 5.88635 101.164 5.2443 101.704 4.82385C102.244 4.39771 102.871 4.18464 103.587 4.18464C103.781 4.18464 103.979 4.19885 104.184 4.22726C104.388 4.24998 104.579 4.28691 104.755 4.33805V7.96021C104.556 7.89203 104.295 7.83805 103.971 7.79828C103.653 7.75851 103.369 7.73862 103.119 7.73862C102.624 7.73862 102.178 7.84941 101.781 8.07101C101.388 8.28691 101.079 8.59089 100.852 8.98294C100.63 9.3693 100.519 9.82385 100.519 10.3466V17.4545H96.3515ZM111.893 17.7017C110.523 17.7017 109.342 17.4318 108.347 16.892C107.359 16.3466 106.597 15.571 106.063 14.5653C105.535 13.554 105.271 12.3523 105.271 10.9602C105.271 9.60794 105.538 8.42612 106.072 7.41476C106.606 6.39771 107.359 5.60794 108.33 5.04544C109.302 4.47726 110.447 4.19317 111.765 4.19317C112.697 4.19317 113.549 4.33805 114.322 4.62782C115.094 4.9176 115.762 5.34657 116.325 5.91476C116.887 6.48294 117.325 7.18464 117.637 8.01987C117.95 8.84941 118.106 9.80112 118.106 10.875V11.9148H106.728V9.4943H114.228C114.222 9.05112 114.117 8.65623 113.913 8.30964C113.708 7.96305 113.427 7.69316 113.069 7.49998C112.717 7.30112 112.31 7.20169 111.85 7.20169C111.384 7.20169 110.967 7.3068 110.597 7.51703C110.228 7.72157 109.935 8.00282 109.719 8.36078C109.504 8.71305 109.39 9.11362 109.379 9.56248V12.0256C109.379 12.5596 109.484 13.0284 109.694 13.4318C109.904 13.8295 110.202 14.1392 110.589 14.3608C110.975 14.5824 111.435 14.6932 111.969 14.6932C112.339 14.6932 112.674 14.642 112.975 14.5398C113.276 14.4375 113.535 14.2869 113.751 14.0881C113.967 13.8892 114.129 13.6449 114.236 13.3551L118.063 13.4659C117.904 14.3238 117.555 15.071 117.015 15.7074C116.481 16.3381 115.779 16.8295 114.91 17.1818C114.04 17.5284 113.035 17.7017 111.893 17.7017Z" fill="#011C2B"/>
</svg>
